<svg width="111" height="111" viewBox="0 0 111 111" fill="none" xmlns="http://www.w3.org/2000/svg">
<path d="M55.5 101.75C81.0432 101.75 101.75 81.0432 101.75 55.5C101.75 29.9568 81.0432 9.25 55.5 9.25C29.9568 9.25 9.25 29.9568 9.25 55.5C9.25 81.0432 29.9568 101.75 55.5 101.75Z" stroke="white" stroke-miterlimit="10"/>
<path d="M55.5012 89.4149C74.232 89.4149 89.4163 74.2306 89.4163 55.4998C89.4163 36.7688 74.232 21.5846 55.5012 21.5846C36.7702 21.5846 21.5859 36.7688 21.5859 55.4998C21.5859 74.2306 36.7702 89.4149 55.5012 89.4149Z" stroke="white" stroke-miterlimit="10"/>
<path d="M33.3744 25.8868C32.9611 26.1968 32.5152 26.4361 32.0529 26.6102C31.5852 26.7842 31.1718 26.8658 30.8074 26.8604L30.5409 25.653C30.8781 25.653 31.237 25.5823 31.6177 25.4572C31.9985 25.332 32.3465 25.1526 32.6565 24.9188C32.8959 24.7448 33.0644 24.5761 33.1786 24.4185C33.2875 24.2607 33.3473 24.1138 33.3527 23.9833C33.3582 23.8473 33.3255 23.7277 33.2439 23.6189C33.1406 23.483 33.0046 23.4123 32.8361 23.4123C32.6674 23.4123 32.4716 23.4503 32.2541 23.5319C32.0366 23.6135 31.8027 23.7113 31.5525 23.8202C31.3023 23.9344 31.0467 24.0322 30.7856 24.1247C30.5191 24.2172 30.2581 24.277 29.9916 24.2987C29.7305 24.3205 29.4749 24.2825 29.2357 24.1791C28.9964 24.0758 28.7734 23.8909 28.5721 23.6189C28.3492 23.3198 28.2296 22.9934 28.2023 22.6291C28.1805 22.2647 28.273 21.8894 28.4906 21.5033C28.7081 21.1171 29.0562 20.7419 29.5511 20.3775C29.8774 20.1328 30.231 19.937 30.6062 19.7738C30.9814 19.6161 31.3459 19.5237 31.6939 19.4964L31.9876 20.6821C31.6559 20.7201 31.3404 20.8017 31.0467 20.9159C30.7476 21.0356 30.4866 21.1769 30.2581 21.3456C30.0188 21.5251 29.8503 21.6883 29.7469 21.8459C29.6436 22.0037 29.5892 22.1505 29.5892 22.2919C29.5892 22.4279 29.6272 22.5529 29.7088 22.6618C29.8121 22.7977 29.9481 22.8684 30.1221 22.8738C30.2908 22.8738 30.4866 22.8358 30.6987 22.7487C30.9107 22.6618 31.1446 22.5638 31.3948 22.4496C31.645 22.3355 31.906 22.2321 32.1725 22.1451C32.4336 22.0581 32.6946 21.9982 32.9557 21.971C33.2113 21.9439 33.4615 21.9819 33.7116 22.0799C33.9563 22.1777 34.1794 22.3626 34.3752 22.6291C34.5927 22.9228 34.7124 23.2492 34.7287 23.6081C34.7504 23.9724 34.6526 24.3477 34.435 24.7393C34.2174 25.1309 33.8639 25.5116 33.3744 25.8705V25.8868Z" fill="white"/>
<path d="M39.8206 22.0308C38.9885 22.4224 38.2326 22.4931 37.5418 22.2484C36.8511 22.0037 36.3127 21.4489 35.9047 20.5842L34.3711 17.3101L35.7362 16.6684L37.2536 19.9098C37.5147 20.4646 37.8137 20.8072 38.1618 20.9486C38.5044 21.09 38.8851 21.0628 39.293 20.8724C39.7064 20.6766 39.9674 20.4048 40.0816 20.0458C40.1958 19.6922 40.1197 19.2355 39.8586 18.6861L38.3413 15.4447L39.6737 14.8193L41.2075 18.0933C41.6153 18.9581 41.6914 19.7304 41.4358 20.4156C41.1857 21.1009 40.6472 21.6339 39.8206 22.02V22.0308Z" fill="white"/>
<path d="M44.7045 19.9324L43.2578 13.6236L45.988 12.9982C46.5536 12.8677 47.0594 12.8513 47.5108 12.9383C47.9622 13.0308 48.3375 13.2211 48.6366 13.5094C48.9357 13.8031 49.1424 14.1783 49.2512 14.6515C49.3599 15.1247 49.3436 15.5597 49.1967 15.9513C49.05 16.3429 48.7943 16.6747 48.4299 16.9575C48.0656 17.2348 47.5978 17.4415 47.0322 17.572L45.1014 18.0125L45.6181 17.2022L46.1675 19.6006L44.6991 19.9379L44.7045 19.9324ZM45.6617 17.3599L44.835 16.8161L46.6841 16.3918C47.1301 16.2885 47.4455 16.1145 47.625 15.8697C47.8099 15.625 47.8589 15.3259 47.7827 14.9778C47.7065 14.6297 47.5271 14.385 47.2551 14.249C46.9832 14.113 46.6243 14.0968 46.1783 14.1946L44.3292 14.6189L44.835 13.7705L45.6562 17.3491L45.6617 17.3599Z" fill="white"/>
<path d="M52.1525 18.4744L52.0273 12.0025L54.8282 11.9481C55.4047 11.9372 55.9106 12.0187 56.3293 12.2037C56.7481 12.3886 57.0799 12.6497 57.3137 12.9922C57.5475 13.3403 57.6727 13.7537 57.6781 14.2323C57.689 14.7218 57.5802 15.1405 57.3626 15.4941C57.1397 15.8475 56.8243 16.1249 56.4055 16.3207C55.9921 16.5219 55.4918 16.6252 54.9153 16.6361L52.9356 16.6743L53.6046 15.9889L53.6535 18.4472L52.1471 18.4744H52.1525ZM53.6155 16.1576L52.9194 15.4559L54.812 15.4179C55.2688 15.407 55.6114 15.3037 55.8399 15.1025C56.0683 14.9012 56.1824 14.6238 56.1771 14.2649C56.1717 13.9059 56.0466 13.6341 55.8126 13.4436C55.5734 13.2533 55.2253 13.1609 54.7739 13.1718L52.8812 13.2098L53.5502 12.4865L53.6209 16.1576H53.6155Z" fill="white"/>
<path d="M62.8683 19.2789C62.3679 19.1757 61.922 19.0017 61.5304 18.7515C61.1388 18.5012 60.8179 18.1967 60.5677 17.8378C60.3121 17.4788 60.1435 17.0818 60.051 16.6467C59.9586 16.2116 59.9641 15.7602 60.0565 15.2871C60.1544 14.8084 60.3284 14.3897 60.584 14.0307C60.8342 13.6718 61.1496 13.3726 61.5249 13.1442C61.9002 12.9103 62.3136 12.7581 62.765 12.6819C63.2164 12.6058 63.6949 12.6167 64.1953 12.72C64.6956 12.8234 65.1416 12.9974 65.5277 13.2421C65.9139 13.4869 66.2347 13.7914 66.4903 14.1503C66.746 14.5093 66.9146 14.9064 67.007 15.3414C67.0995 15.7765 67.0941 16.2279 66.9962 16.7065C66.8983 17.1797 66.7243 17.5984 66.4741 17.9629C66.2184 18.3272 65.9084 18.6318 65.5332 18.8602C65.1579 19.0886 64.7446 19.2464 64.2932 19.3225C63.8418 19.3987 63.3686 19.3823 62.8737 19.2844L62.8683 19.2789ZM63.113 18.0336C63.3958 18.0934 63.6678 18.0934 63.9288 18.0444C64.1899 17.9955 64.4291 17.8922 64.6467 17.7453C64.8642 17.5984 65.0491 17.4135 65.2014 17.1906C65.3537 16.9676 65.457 16.7011 65.5168 16.402C65.5767 16.1028 65.5821 15.8146 65.5332 15.5536C65.4843 15.2871 65.3863 15.0478 65.2449 14.8248C65.1036 14.6017 64.9187 14.4168 64.7011 14.2701C64.4835 14.1232 64.2333 14.0198 63.9505 13.96C63.6678 13.9002 63.3958 13.9002 63.1348 13.9491C62.8737 13.9981 62.6344 14.1014 62.4169 14.2483C62.1993 14.3952 62.0198 14.58 61.8675 14.8084C61.7153 15.0314 61.6119 15.298 61.5521 15.597C61.4923 15.9016 61.4868 16.1844 61.5358 16.4455C61.5848 16.712 61.6826 16.9512 61.824 17.1743C61.9655 17.3972 62.1449 17.5767 62.3679 17.729C62.5909 17.8758 62.841 17.9791 63.1239 18.039L63.113 18.0336Z" fill="white"/>
<path d="M68.2648 20.5951L70.9079 14.6888L73.4641 15.8309C73.9917 16.0702 74.4104 16.3584 74.715 16.7011C75.0196 17.0437 75.2045 17.4244 75.2697 17.8377C75.335 18.2511 75.2697 18.6753 75.0739 19.1158C74.8727 19.5618 74.6007 19.8936 74.2473 20.1165C73.8992 20.3395 73.4913 20.4537 73.0345 20.4483C72.5777 20.4483 72.0827 20.3232 71.5551 20.0839L69.7495 19.2735L70.636 18.9635L69.6299 21.2097L68.2539 20.5951H68.2648ZM70.5762 19.1158L70.2444 18.1858L71.9739 18.9581C72.3927 19.143 72.7462 19.1975 73.0399 19.1104C73.3336 19.0233 73.5565 18.8221 73.6979 18.4958C73.8448 18.1695 73.8503 17.8704 73.7143 17.5984C73.5783 17.3265 73.3064 17.0981 72.8876 16.9078L71.1581 16.1355L72.0718 15.7656L70.5707 19.1158H70.5762ZM72.0283 22.2811L71.5008 19.4693L72.9691 20.1274L73.4967 22.9337L72.0283 22.2756V22.2811Z" fill="white"/>
<path d="M76.2164 24.7397L79.2348 20.4432L77.538 19.2522L78.2396 18.2515L82.857 21.4929L82.1553 22.4936L80.4585 21.3025L77.4401 25.5991L76.2109 24.7397H76.2164Z" fill="white"/>
<path d="M82.7461 30.2268L83.5021 29.6177L86.9066 30.0691C87.1677 30.1071 87.3853 30.1235 87.5538 30.1126C87.7225 30.1018 87.8639 30.0691 87.9781 30.0147C88.0923 29.9603 88.1848 29.906 88.2717 29.8353C88.4675 29.6775 88.5655 29.4872 88.5655 29.2587C88.5655 29.0358 88.4567 28.791 88.2392 28.5245C88.0652 28.307 87.8639 28.1493 87.63 28.0405C87.4016 27.9317 87.1515 27.8882 86.885 27.899L86.749 26.6155C87.1895 26.5721 87.63 26.6482 88.0759 26.8603C88.522 27.0669 88.9298 27.3987 89.2943 27.8501C89.5988 28.2254 89.8055 28.6007 89.9142 28.9814C90.023 29.3621 90.0284 29.721 89.936 30.0527C89.8381 30.39 89.6368 30.6837 89.3323 30.9284C89.1746 31.0589 88.9951 31.1622 88.7938 31.2493C88.5926 31.3362 88.3588 31.3907 88.0814 31.4124C87.8095 31.4342 87.4669 31.4233 87.0535 31.3635L84.2417 30.9773L84.4756 30.4172L86.7816 33.2616L85.8353 34.0284L82.7461 30.2214V30.2268Z" fill="white"/>
<path d="M86.9453 35.6387L92.6776 32.6311L93.2541 33.7297L90.8992 39.2771L90.6218 38.7441L94.7497 36.5795L95.435 37.8903L89.7027 40.8924L89.1262 39.7938L91.4811 34.2464L91.7585 34.7794L87.6305 36.944L86.9453 35.6333V35.6387Z" fill="white"/>
<path d="M90.5898 43.1549L96.8497 41.507L97.6002 44.3514C97.7797 45.0312 97.8069 45.6621 97.6818 46.2495C97.5567 46.8369 97.3011 47.3372 96.9095 47.7505C96.518 48.1638 96.0067 48.4576 95.3758 48.6207C94.7449 48.7839 94.1576 48.7839 93.6083 48.6207C93.0644 48.4521 92.5912 48.142 92.1997 47.6906C91.8081 47.2392 91.5144 46.6737 91.3403 45.9938L90.5898 43.1494V43.1549ZM92.1562 44.3025L92.5043 45.6185C92.613 46.0374 92.787 46.3746 93.0264 46.6411C93.2657 46.9075 93.5538 47.087 93.8965 47.1794C94.2337 47.2719 94.6035 47.2665 94.9951 47.1631C95.3921 47.0598 95.7185 46.8803 95.9632 46.6356C96.2133 46.3908 96.3711 46.0917 96.4473 45.7436C96.5234 45.3956 96.5071 45.0149 96.3983 44.5961L96.0502 43.2799L92.1507 44.3078L92.1562 44.3025Z" fill="white"/>
<path d="M92.7542 55.1363L99.199 55.7127L99.0901 56.9473L94.2933 59.2859L94.3531 58.6333L98.6605 61.7278L98.5463 62.9733L92.1016 62.3968L92.2266 61.0046L96.5286 61.3689L96.5068 61.6463L93.0914 59.1499L93.1512 58.4864L96.9582 56.6101L96.931 56.9147L92.6291 56.5285L92.7542 55.1363Z" fill="white"/>
<path d="M92.1556 66.5302L91.0678 69.8805L89.9258 69.5107L91.4758 64.7464L97.6323 66.7478L96.1204 71.3979L94.9782 71.028L96.0333 67.792L92.1664 66.5302H92.1556ZM94.7335 67.2536L93.7709 70.2177L92.656 69.8532L93.6186 66.8892L94.7335 67.2536Z" fill="white"/>
<path d="M87.4471 74.1003C87.6918 73.6653 87.991 73.3008 88.3445 73.0072C88.698 72.7134 89.0842 72.5068 89.4975 72.3817C89.9163 72.2566 90.346 72.2186 90.7865 72.262C91.227 72.3056 91.6566 72.4524 92.0809 72.6918C92.505 72.931 92.8531 73.2247 93.1196 73.5782C93.3861 73.9318 93.5765 74.3179 93.6852 74.7421C93.7941 75.1662 93.8103 75.6068 93.745 76.0582C93.6798 76.5096 93.5221 76.9556 93.2774 77.3906C93 77.8802 92.6682 78.2772 92.2767 78.5763C91.8851 78.8754 91.45 79.0712 90.9659 79.1528L90.6723 77.8693C90.9986 77.804 91.2868 77.6844 91.5315 77.5103C91.7817 77.3363 91.9829 77.1079 92.1407 76.8305C92.2876 76.5695 92.3799 76.3029 92.4181 76.031C92.4561 75.759 92.4343 75.498 92.3636 75.2478C92.293 74.9977 92.1733 74.7639 92.0047 74.5517C91.8362 74.3396 91.6131 74.1547 91.3466 74.0078C91.0801 73.8556 90.8082 73.7631 90.5363 73.7251C90.2644 73.6869 90.0033 73.7087 89.7532 73.7794C89.503 73.8502 89.2691 73.9698 89.0569 74.1383C88.8449 74.307 88.6654 74.5245 88.5131 74.791C88.3554 75.0684 88.2684 75.362 88.2466 75.6667C88.2248 75.9712 88.2738 76.2757 88.3881 76.5912L87.1372 76.9991C86.9632 76.5477 86.8979 76.0745 86.9523 75.5796C87.0066 75.0847 87.1698 74.5897 87.4471 74.1003Z" fill="white"/>
<path d="M86.9615 85.6469L85.9608 86.7618L81.1367 82.4436L82.1375 81.3287L86.9615 85.6469ZM84.0465 83.1832L86.1566 80.8283L87.1029 81.6713L84.9927 84.0262L84.0465 83.1832ZM84.0954 79.1478L85.1015 78.022L89.9256 82.3402L88.9194 83.466L84.0954 79.1478Z" fill="white"/>
<path d="M80.0001 83.564L81.4141 90.5036L80.2122 91.363L74.0938 87.7789L75.3718 86.8652L80.6201 90.1392L80.1306 90.4873L78.7492 84.4559L80.0001 83.564ZM79.6248 85.5381L79.9784 86.6858L77.2536 88.6273L76.2801 87.9258L79.6303 85.5381H79.6248Z" fill="white"/>
<path d="M72.6729 88.4809L75.1964 94.4416L74.0542 94.9255L68.719 92.1246L69.2737 91.8908L71.0902 96.1819L69.7305 96.7584L67.207 90.7977L68.3491 90.3136L73.6844 93.1145L73.1297 93.3484L71.3078 89.0573L72.6729 88.4809Z" fill="white"/>
<path d="M64.7575 91.4116L66.2532 97.7095L64.7847 98.0576L63.2891 91.7597L64.7575 91.4116Z" fill="white"/>
<path d="M61.2414 92.2326L61.3175 93.2007L57.7171 98.3348L57.4888 97.8072L61.5895 97.4755L61.6873 98.6937L56.2597 99.1342L56.1835 98.1661L59.773 93.0321L60.0014 93.5596L55.6995 93.9078L55.6016 92.6894L61.2414 92.2326Z" fill="white"/>
<path d="M52.0912 93.6303L48.5887 93.2388L48.7247 92.0423L53.7065 92.6025L52.9832 99.0364L48.1211 98.4871L48.257 97.2906L51.6398 97.6713L52.0966 93.6303H52.0912ZM51.9008 96.3007L48.8063 95.9527L48.9368 94.7834L52.0314 95.1314L51.9008 96.3007Z" fill="white"/>
<path d="M46.6527 91.6238L44.6023 97.7641L41.8123 96.834C41.1434 96.611 40.5995 96.2901 40.1754 95.866C39.7511 95.4417 39.4737 94.9523 39.3378 94.3976C39.2019 93.8428 39.2399 93.2554 39.4466 92.6355C39.6533 92.0154 39.9796 91.526 40.4201 91.1615C40.8606 90.7972 41.3772 90.5741 41.9701 90.4926C42.5629 90.4056 43.1937 90.4763 43.8627 90.6992L46.6527 91.6293V91.6238ZM44.8362 92.3037L43.5473 91.874C43.1394 91.738 42.7587 91.6945 42.4051 91.7489C42.0517 91.8033 41.747 91.9447 41.4805 92.1786C41.2195 92.4124 41.0183 92.7224 40.8933 93.1085C40.7627 93.5001 40.7301 93.8646 40.8008 94.2071C40.8715 94.5498 41.0291 94.849 41.2794 95.1046C41.5296 95.3602 41.8559 95.556 42.2692 95.692L43.5582 96.1216L44.8362 92.2982V92.3037Z" fill="white"/>
<path d="M35.4569 86.8111L31.5737 91.9886L29.0447 90.0906C28.3921 89.6011 27.9952 89.1116 27.8537 88.6221C27.7123 88.1272 27.7885 87.6813 28.093 87.2788C28.2942 87.0068 28.539 86.8219 28.8218 86.7187C29.1045 86.6207 29.4037 86.6044 29.7191 86.6696C30.0346 86.7349 30.3391 86.8818 30.6383 87.1048L30.263 87.3114C29.9367 87.0667 29.6919 86.8002 29.5234 86.5011C29.3548 86.2019 29.2786 85.9028 29.2895 85.5874C29.3003 85.272 29.4201 84.9674 29.6484 84.6628C29.9802 84.2168 30.4153 84.0047 30.9537 84.0156C31.4922 84.0265 32.1012 84.293 32.7811 84.7988L35.4569 86.8056V86.8111ZM33.5914 86.8219L32.1883 85.7668C31.8837 85.5385 31.6118 85.4134 31.3671 85.397C31.1277 85.3807 30.9265 85.4786 30.7634 85.6961C30.5947 85.9191 30.5567 86.1421 30.6437 86.3651C30.7307 86.5935 30.9265 86.8165 31.2311 87.045L32.7267 88.1652L32.0741 89.0409L30.7959 88.0837C30.5078 87.8662 30.2467 87.7465 30.0128 87.7356C29.7844 87.7193 29.5886 87.8172 29.4309 88.0238C29.2732 88.2305 29.2405 88.4426 29.3221 88.6548C29.4037 88.8723 29.5886 89.0844 29.8823 89.3074L31.0733 90.1993L33.6023 86.8274L33.5914 86.8219Z" fill="white"/>
<path d="M29.7968 82.4646L23.0149 84.5094L22.0469 83.3891L25.0544 76.9661L26.0823 78.1572L23.3031 83.6882L22.9115 83.2314L28.7907 81.3007L29.7915 82.4646H29.7968ZM27.7954 82.2742L26.686 82.7311L24.4997 80.1967L25.1088 79.1579L27.7954 82.2742Z" fill="white"/>
<path d="M23.7622 74.6609L19.21 77.2823L20.2433 79.077L19.1828 79.6862L16.3711 74.7968L17.4316 74.1877L18.4649 75.9825L23.017 73.3665L23.7622 74.6663V74.6609Z" fill="white"/>
<path d="M20.8127 68.5972L15.8636 70.3593L16.5597 72.3118L15.4122 72.7197L13.5195 67.4062L14.667 66.9983L15.3633 68.9507L20.3123 67.1886L20.8127 68.5972Z" fill="white"/>
<path d="M19.3977 64.6862L12.5668 62.8261L12.3438 61.3632L18.2991 57.5126L18.5384 59.068L13.252 62.2823L13.1596 61.6895L19.1692 63.1742L19.4031 64.6916L19.3977 64.6862ZM17.8041 63.4624L16.624 63.2613L16.1182 59.9545L17.1842 59.3998L17.8096 63.4678L17.8041 63.4624Z" fill="white"/>
<path d="M18.3689 55.8979L11.9023 55.6096L11.9676 54.1032L17.216 54.337L17.3627 51.1119L18.581 51.1663L18.3689 55.8979Z" fill="white"/>
<path d="M18.9359 49.3445L12.5781 48.1372L12.861 46.6579L19.2187 47.8653L18.9359 49.3445Z" fill="white"/>
<path d="M20.9055 42.5028C20.726 42.9814 20.4813 43.3947 20.1767 43.7374C19.8667 44.0854 19.5187 44.3519 19.1216 44.5477C18.7246 44.7435 18.3058 44.8468 17.8653 44.8686C17.4248 44.8904 16.9788 44.8142 16.5274 44.6456C16.0706 44.477 15.6844 44.2377 15.369 43.9277C15.0536 43.6231 14.8088 43.2642 14.6402 42.8617C14.4716 42.4538 14.3846 42.0242 14.3791 41.5619C14.3737 41.1051 14.4608 40.6319 14.6402 40.1533C14.8197 39.6747 15.0644 39.2613 15.3636 38.9188C15.6681 38.5761 16.0162 38.3042 16.4132 38.1138C16.8103 37.918 17.229 37.8147 17.6695 37.7929C18.1101 37.7711 18.5615 37.8473 19.0183 38.016C19.4697 38.1845 19.8559 38.4238 20.1767 38.7339C20.4976 39.0438 20.7423 39.3973 20.9163 39.8052C21.085 40.2131 21.1719 40.6428 21.1774 41.0996C21.1774 41.5565 21.0904 42.0242 20.9163 42.4974L20.9055 42.5028ZM19.7144 42.0622C19.8177 41.7904 19.8613 41.5239 19.8504 41.2628C19.8395 41.0018 19.7797 40.7462 19.671 40.5068C19.5621 40.2675 19.4045 40.0554 19.2087 39.8759C19.0129 39.691 18.7681 39.5442 18.4799 39.4409C18.1916 39.332 17.9143 39.2831 17.6423 39.2886C17.3704 39.294 17.1202 39.3538 16.8755 39.4626C16.6361 39.5714 16.424 39.7182 16.2446 39.914C16.0651 40.1043 15.9237 40.3382 15.8204 40.6102C15.717 40.882 15.6735 41.1485 15.679 41.415C15.6844 41.6815 15.7497 41.9317 15.8584 42.1711C15.9726 42.4049 16.1249 42.617 16.3262 42.8019C16.522 42.9868 16.7667 43.1282 17.055 43.237C17.3432 43.3458 17.6206 43.3947 17.8925 43.3893C18.1645 43.3838 18.4146 43.324 18.6593 43.2206C18.8986 43.1173 19.1107 42.965 19.2902 42.7692C19.4697 42.5734 19.6165 42.3396 19.7144 42.0677V42.0622Z" fill="white"/>
<path d="M23.0209 37.3793L17.6367 33.7899L18.3219 32.7566L24.3153 32.1638L23.9836 32.6641L20.1059 30.0808L20.927 28.8517L26.3113 32.4411L25.626 33.4745L19.6327 34.0672L19.9644 33.5669L23.8421 36.1502L23.0209 37.3793Z" fill="white"/>
<path d="M40.4414 27.636V71.7721L55.6385 87.0352L70.8358 71.7721V27.636H40.4414ZM69.589 70.9373L55.6385 85.0525L41.6881 70.9373V28.8827H69.589V70.9373Z" fill="white"/>
<mask id="mask0_481_344" style="mask-type:luminance" maskUnits="userSpaceOnUse" x="41" y="28" width="29" height="58">
<path d="M41.6875 28.8837H69.5885V70.9384L55.638 85.0591L41.6875 70.9384V28.8837Z" fill="white"/>
</mask>
<g mask="url(#mask0_481_344)">
<mask id="mask1_481_344" style="mask-type:luminance" maskUnits="userSpaceOnUse" x="-71" y="-30" width="249" height="176">
<path d="M177.017 -29.4117H-70.3242V145.474H177.017V-29.4117Z" fill="white"/>
</mask>
<g mask="url(#mask1_481_344)">
<path d="M50.8477 57.4106V72.8165H53.3467V64.4902L57.9273 67.8185V72.8165H60.4262V57.4106H57.9273V65.3195L53.3467 61.9912V57.4106H50.8477Z" fill="white"/>
<path d="M74.9174 31.4151L35.3477 53.5026L36.3488 55.2963L75.9186 33.2086L74.9174 31.4151Z" fill="white"/>
<path d="M36.3567 31.4196L35.3555 33.2132L74.9253 55.3009L75.9265 53.5072L36.3567 31.4196Z" fill="white"/>
<path d="M61.4804 50.6435H49.7928C46.003 50.6435 42.9219 47.5624 42.9219 43.7726V42.9213C42.9219 39.1317 46.003 36.0505 49.7928 36.0505H61.4804C65.2701 36.0505 68.3513 39.1317 68.3513 42.9213V43.7726C68.3513 47.5624 65.2701 50.6435 61.4804 50.6435ZM49.7928 38.1157C47.14 38.1157 44.9814 40.2741 44.9814 42.9269V43.7782C44.9814 46.431 47.14 48.5894 49.7928 48.5894H61.4804C64.1332 48.5894 66.2916 46.431 66.2916 43.7782V42.9269C66.2916 40.2741 64.1332 38.1157 61.4804 38.1157H49.7928Z" fill="white"/>
</g>
</g>
</svg>
